<svg xmlns="http://www.w3.org/2000/svg" width="640" height="400" viewBox="0 0 640 400">
  <defs><linearGradient id="bg" x2="1" y2="1"><stop stop-color="#214f3d"/><stop offset="1" stop-color="#102e25"/></linearGradient><pattern id="grid" width="40" height="40" patternUnits="userSpaceOnUse"><path d="M40 0H0V40" fill="none" stroke="#d8dfcf" stroke-width="1"/></pattern><filter id="shadow"><feDropShadow dx="0" dy="15" stdDeviation="16" flood-opacity=".22"/></filter></defs>
  <path fill="url(#bg)" d="M0 0h640v400H0z"/>
  <circle cx="598" cy="29" r="200" fill="none" stroke="#b5d591" opacity=".08"/><circle cx="598" cy="29" r="245" fill="none" stroke="#b5d591" opacity=".07"/>
  <g transform="translate(323 15) rotate(10 180 180)" filter="url(#shadow)"><rect width="360" height="360" rx="12" fill="#f8f8ef"/><path fill="#d5e9b8" d="M120 0h40v360h-40zM0 120h360v40H0z"/><path fill="url(#grid)" d="M0 0h360v360H0z"/><path d="M120 0v360M240 0v360M0 120h360M0 240h360" stroke="#819276" stroke-width="2"/>
  <g font-family="Arial,sans-serif" font-size="24" text-anchor="middle" fill="#294d39"><text x="20" y="29">8</text><text x="100" y="29">3</text><text x="220" y="29">1</text><text x="300" y="29">5</text><text x="60" y="69">4</text><text x="140" y="69">9</text><text x="260" y="69">7</text><text x="20" y="109">6</text><text x="180" y="109">2</text><text x="340" y="109">3</text><text x="60" y="149">2</text><text x="140" y="149" font-weight="bold">5</text><text x="220" y="149">8</text><text x="20" y="189">3</text><text x="100" y="189">1</text><text x="300" y="189">2</text><text x="60" y="229">9</text><text x="180" y="229">6</text><text x="260" y="229">4</text><text x="20" y="269">5</text><text x="140" y="269">2</text><text x="220" y="269">9</text><text x="100" y="309">7</text><text x="300" y="309">6</text><text x="60" y="349">1</text><text x="180" y="349">3</text></g><rect x="121" y="121" width="38" height="38" rx="2" fill="none" stroke="#6e9351" stroke-width="2"/></g>
  <text x="38" y="70" fill="#c6de9e" font-family="Arial,sans-serif" font-size="34">✳</text><text x="38" y="172" fill="#f5f5e8" font-family="Georgia,serif" font-size="64" letter-spacing="-3">sudoku.</text><text x="40" y="207" fill="#bfd0b3" font-family="Arial,sans-serif" font-size="12" letter-spacing="3">FIND YOUR FLOW</text>
  <rect x="39" y="300" width="178" height="30" rx="15" fill="#b8d494" fill-opacity=".12" stroke="#b8d494" stroke-opacity=".3"/><text x="128" y="320" text-anchor="middle" fill="#d4e6be" font-family="Arial,sans-serif" font-size="10" letter-spacing="1.5">A LITTLE DAILY CLARITY</text>
</svg>
