<svg xmlns="http://www.w3.org/2000/svg" viewBox="0 0 128 128">
<defs><radialGradient id="bg" cx="50%" cy="35%" r="70%"><stop offset="0" stop-color="#4c1d95"/><stop offset="1" stop-color="#12051f"/></radialGradient></defs>
<circle cx="64" cy="64" r="64" fill="url(#bg)"/>
<circle cx="64" cy="66" r="36" fill="#1e1b2e"/>
<path d="M96 56l22-10-6 14 10 6-26 0z" fill="#f472b6"/>
<rect x="26" y="50" width="76" height="14" fill="#f472b6"/>
<path d="M36 66h56c0 4-2 8-6 10H42c-4-2-6-6-6-10z" fill="#f5d0b5"/>
<path d="M44 68l12 4-12 3z" fill="#0b0b12"/><path d="M84 68l-12 4 12 3z" fill="#0b0b12"/>
<circle cx="50" cy="71" r="2" fill="#5eead4"/><circle cx="78" cy="71" r="2" fill="#5eead4"/>
<path d="M30 112c6-14 18-20 34-20s28 6 34 20z" fill="#1e1b2e"/>
<path d="M58 92l6 10 6-10z" fill="#f472b6"/>
</svg>
