<svg xmlns="http://www.w3.org/2000/svg" viewBox="0 0 128 128">
<defs><radialGradient id="bg" cx="50%" cy="35%" r="70%"><stop offset="0" stop-color="#a16207"/><stop offset="1" stop-color="#1f1302"/></radialGradient></defs>
<circle cx="64" cy="64" r="64" fill="url(#bg)"/>
<path d="M22 56c4-10 14-14 24-12h36c10-2 20 2 24 12l10 34c3 12-10 20-20 12l-12-12H44L32 102c-10 8-23 0-20-12z" fill="#7c3aed"/>
<path d="M22 56c4-10 14-14 24-12h36c10-2 20 2 24 12l2 6c-8-6-16-8-26-6H46c-10-2-18 0-26 6z" fill="#8b5cf6"/>
<rect x="34" y="62" width="8" height="24" rx="2" fill="#1e1b2e"/><rect x="26" y="70" width="24" height="8" rx="2" fill="#1e1b2e"/>
<circle cx="88" cy="64" r="5" fill="#5eead4"/><circle cx="98" cy="74" r="5" fill="#f472b6"/>
<circle cx="78" cy="74" r="5" fill="#fbbf24"/><circle cx="88" cy="84" r="5" fill="#f43f5e"/>
<circle cx="56" cy="62" r="4" fill="#fff"/><circle cx="72" cy="62" r="4" fill="#fff"/>
<circle cx="57" cy="63" r="2" fill="#0b0b12"/><circle cx="73" cy="63" r="2" fill="#0b0b12"/>
<path d="M58 72q6 5 12 0" stroke="#fff" stroke-width="2.5" fill="none" stroke-linecap="round"/>
<path d="M64 44V32q0-10 10-12" stroke="#cbd5e1" stroke-width="3" fill="none" stroke-linecap="round"/>
</svg>
